<svg width="15" height="13" viewBox="0 0 15 13" fill="none" xmlns="http://www.w3.org/2000/svg">
<path fill-rule="evenodd" clip-rule="evenodd" d="M2.08068 3.00535H2.06105C1.07964 3.00535 0.443359 2.36328 0.443359 1.5494C0.443359 0.719682 1.09845 0.0910645 2.09949 0.0910645C3.09971 0.0910645 3.71472 0.718097 3.73435 1.54702C3.73435 2.3609 3.09971 3.00535 2.08068 3.00535ZM14.3533 12.4553H11.2791V8.10879C11.2791 6.97112 10.7982 6.19449 9.74068 6.19449C8.9319 6.19449 8.48207 6.71858 8.27273 7.22366C8.20356 7.38336 8.2048 7.59841 8.20608 7.82V7.82C8.20625 7.84996 8.20642 7.88004 8.20642 7.91011V12.4553H5.1608C5.1608 12.4553 5.20006 4.7559 5.1608 4.05605H8.20642V5.37427C8.3864 4.79786 9.35963 3.97529 10.9127 3.97529C12.8395 3.97529 14.3533 5.18347 14.3533 7.785V12.4553ZM3.50549 4.0559H0.794343V12.4552H3.50549V4.0559Z" fill="white"/>
</svg>
