<svg width="12" height="12" viewBox="0 0 12 12" fill="none" xmlns="http://www.w3.org/2000/svg">
<path d="M5.93604 10.688C4.65968 10.688 3.4356 10.181 2.53308 9.27844C1.63056 8.37592 1.12354 7.15184 1.12354 5.87549C1.12354 4.59913 1.63056 3.37506 2.53308 2.47254C3.4356 1.57002 4.65968 1.06299 5.93604 1.06299C7.21239 1.06299 8.43647 1.57002 9.33899 2.47254C10.2415 3.37506 10.7485 4.59913 10.7485 5.87549C10.7485 7.15184 10.2415 8.37592 9.33899 9.27844C8.43647 10.181 7.21239 10.688 5.93604 10.688ZM5.93604 11.3755C7.39473 11.3755 8.79367 10.796 9.82512 9.76458C10.8566 8.73313 11.436 7.33418 11.436 5.87549C11.436 4.4168 10.8566 3.01785 9.82512 1.9864C8.79367 0.954951 7.39473 0.375488 5.93604 0.375488C4.47734 0.375488 3.0784 0.954951 2.04695 1.9864C1.0155 3.01785 0.436035 4.4168 0.436035 5.87549C0.436035 7.33418 1.0155 8.73313 2.04695 9.76458C3.0784 10.796 4.47734 11.3755 5.93604 11.3755Z" fill="#C50000"/>
<path d="M5.24991 7.93799C5.24991 7.8477 5.26769 7.7583 5.30224 7.67489C5.33679 7.59148 5.38743 7.51569 5.45127 7.45185C5.51511 7.38801 5.5909 7.33737 5.67432 7.30282C5.75773 7.26827 5.84713 7.25049 5.93741 7.25049C6.02769 7.25049 6.11709 7.26827 6.20051 7.30282C6.28392 7.33737 6.35971 7.38801 6.42355 7.45185C6.48739 7.51569 6.53803 7.59148 6.57258 7.67489C6.60713 7.7583 6.62491 7.8477 6.62491 7.93799C6.62491 8.12032 6.55248 8.29519 6.42355 8.42412C6.29461 8.55305 6.11975 8.62549 5.93741 8.62549C5.75507 8.62549 5.58021 8.55305 5.45127 8.42412C5.32234 8.29519 5.24991 8.12032 5.24991 7.93799ZM5.31729 3.80955C5.30813 3.72282 5.31731 3.63513 5.34424 3.55217C5.37116 3.46921 5.41522 3.39284 5.47357 3.32802C5.53191 3.26319 5.60323 3.21135 5.68291 3.17587C5.76258 3.14039 5.84882 3.12205 5.93604 3.12205C6.02325 3.12205 6.10949 3.14039 6.18917 3.17587C6.26884 3.21135 6.34016 3.26319 6.3985 3.32802C6.45685 3.39284 6.50091 3.46921 6.52783 3.55217C6.55476 3.63513 6.56394 3.72282 6.55478 3.80955L6.31416 6.22061C6.30608 6.31533 6.26274 6.40357 6.19272 6.46786C6.1227 6.53216 6.0311 6.56784 5.93604 6.56784C5.84097 6.56784 5.74937 6.53216 5.67935 6.46786C5.60933 6.40357 5.56599 6.31533 5.55791 6.22061L5.31729 3.80955Z" fill="#C50000"/>
</svg>
